<svg width="20" height="27" viewBox="0 0 20 27" fill="none" xmlns="http://www.w3.org/2000/svg">
<g filter="url(#filter0_d_2305_6095)">
<path d="M4.00003 9.5373C3.99851 9.78617 4.04893 10.0329 4.14839 10.2633C4.24785 10.4937 4.3944 10.7032 4.57964 10.8799L12.5742 18.4439C12.7605 18.6202 12.9817 18.76 13.2252 18.8555C13.4687 18.9509 13.7297 19 13.9932 19C14.2567 19 14.5177 18.9509 14.7612 18.8555C15.0046 18.76 15.2259 18.6202 15.4122 18.4439C15.5986 18.2676 15.7464 18.0582 15.8472 17.8279C15.9481 17.5975 16 17.3506 16 17.1013C16 16.8519 15.9481 16.605 15.8472 16.3747C15.7464 16.1443 15.5986 15.935 15.4122 15.7587L8.79675 9.5373L15.1524 3.29703C15.3568 3.12307 15.5211 2.91108 15.635 2.6743C15.7489 2.43752 15.81 2.18106 15.8143 1.92095C15.8187 1.66084 15.7663 1.40267 15.6604 1.1626C15.5544 0.922527 15.3973 0.705717 15.1988 0.525721C15.0003 0.345726 14.7647 0.206417 14.5066 0.116514C14.2486 0.0266094 13.9738 -0.0119553 13.6993 0.0032253C13.4248 0.0184059 13.1566 0.0870094 12.9114 0.204742C12.6662 0.322477 12.4494 0.486807 12.2744 0.68746L4.55965 8.25143C4.20726 8.59724 4.00718 9.05698 4.00003 9.5373Z" fill="white"/>
</g>
<defs>
<filter id="filter0_d_2305_6095" x="0" y="0" width="20" height="27" filterUnits="userSpaceOnUse" color-interpolation-filters="sRGB">
<feFlood flood-opacity="0" result="BackgroundImageFix"/>
<feColorMatrix in="SourceAlpha" type="matrix" values="0 0 0 0 0 0 0 0 0 0 0 0 0 0 0 0 0 0 127 0" result="hardAlpha"/>
<feOffset dy="4"/>
<feGaussianBlur stdDeviation="2"/>
<feComposite in2="hardAlpha" operator="out"/>
<feColorMatrix type="matrix" values="0 0 0 0 0 0 0 0 0 0 0 0 0 0 0 0 0 0 0.25 0"/>
<feBlend mode="normal" in2="BackgroundImageFix" result="effect1_dropShadow_2305_6095"/>
<feBlend mode="normal" in="SourceGraphic" in2="effect1_dropShadow_2305_6095" result="shape"/>
</filter>
</defs>
</svg>
