<svg width="77" height="77" viewBox="0 0 77 77" fill="none" xmlns="http://www.w3.org/2000/svg">
<g filter="url(#filter0_d_765_2346)">
<g filter="url(#filter1_d_765_2346)">
<path d="M38.5945 24.0428C39.2248 24.0392 39.8497 24.1605 40.4333 24.4C41.0168 24.6395 41.5476 24.9924 41.9952 25.4384L61.1539 44.6884C61.6005 45.1371 61.9547 45.6698 62.1964 46.2561C62.4381 46.8424 62.5625 47.4707 62.5625 48.1053C62.5625 48.7399 62.4381 49.3682 62.1964 49.9545C61.9547 50.5408 61.6005 51.0735 61.1539 51.5222C60.7073 51.9709 60.1771 52.3268 59.5937 52.5697C59.0102 52.8125 58.3848 52.9375 57.7532 52.9375C57.1217 52.9375 56.4963 52.8125 55.9128 52.5697C55.3293 52.3268 54.7991 51.9709 54.3525 51.5222L38.5945 35.5928L22.7885 50.8966C22.3479 51.3888 21.811 51.7845 21.2112 52.0587C20.6115 52.333 19.9619 52.4799 19.3031 52.4904C18.6442 52.5009 17.9903 52.3747 17.3823 52.1197C16.7742 51.8646 16.225 51.4863 15.7691 51.0083C15.3132 50.5303 14.9603 49.9629 14.7326 49.3417C14.5049 48.7204 14.4072 48.0586 14.4457 47.3977C14.4841 46.7367 14.6579 46.0909 14.9561 45.5005C15.2543 44.9101 15.6705 44.3879 16.1788 43.9666L35.3375 25.3903C36.2134 24.5418 37.3779 24.06 38.5945 24.0428Z" fill="url(#paint0_linear_765_2346)"/>
</g>
</g>
<defs>
<filter id="filter0_d_765_2346" x="-4" y="0" width="85" height="85" filterUnits="userSpaceOnUse" color-interpolation-filters="sRGB">
<feFlood flood-opacity="0" result="BackgroundImageFix"/>
<feColorMatrix in="SourceAlpha" type="matrix" values="0 0 0 0 0 0 0 0 0 0 0 0 0 0 0 0 0 0 127 0" result="hardAlpha"/>
<feOffset dy="4"/>
<feGaussianBlur stdDeviation="2"/>
<feComposite in2="hardAlpha" operator="out"/>
<feColorMatrix type="matrix" values="0 0 0 0 0 0 0 0 0 0 0 0 0 0 0 0 0 0 0.25 0"/>
<feBlend mode="normal" in2="BackgroundImageFix" result="effect1_dropShadow_765_2346"/>
<feBlend mode="normal" in="SourceGraphic" in2="effect1_dropShadow_765_2346" result="shape"/>
</filter>
<filter id="filter1_d_765_2346" x="10.4375" y="24.0427" width="56.125" height="36.8948" filterUnits="userSpaceOnUse" color-interpolation-filters="sRGB">
<feFlood flood-opacity="0" result="BackgroundImageFix"/>
<feColorMatrix in="SourceAlpha" type="matrix" values="0 0 0 0 0 0 0 0 0 0 0 0 0 0 0 0 0 0 127 0" result="hardAlpha"/>
<feOffset dy="4"/>
<feGaussianBlur stdDeviation="2"/>
<feComposite in2="hardAlpha" operator="out"/>
<feColorMatrix type="matrix" values="0 0 0 0 0 0 0 0 0 0 0 0 0 0 0 0 0 0 0.25 0"/>
<feBlend mode="normal" in2="BackgroundImageFix" result="effect1_dropShadow_765_2346"/>
<feBlend mode="normal" in="SourceGraphic" in2="effect1_dropShadow_765_2346" result="shape"/>
</filter>
<linearGradient id="paint0_linear_765_2346" x1="62.5625" y1="24.0427" x2="37.0589" y2="66.5196" gradientUnits="userSpaceOnUse">
<stop stop-color="#182F61"/>
<stop offset="0.1888" stop-color="#1B3366"/>
<stop offset="0.4278" stop-color="#233E76"/>
<stop offset="0.6938" stop-color="#305190"/>
<stop offset="0.9775" stop-color="#426CB4"/>
<stop offset="1" stop-color="#446EB7"/>
</linearGradient>
</defs>
</svg>
